Coordinates
version=1
nRows=11
nColumns=40
inDegrees=yes

Units are S.I. units (second, meters, Newtons, ...)
Angles are in degrees.

endheader
time	pelvis_tilt	pelvis_list	pelvis_rotation	pelvis_tx	pelvis_ty	pelvis_tz	hip_flexion_r	hip_adduction_r	hip_rotation_r	knee_angle_r	knee_angle_r_beta	ankle_angle_r	subtalar_angle_r	mtp_angle_r	hip_flexion_l	hip_adduction_l	hip_rotation_l	knee_angle_l	knee_angle_l_beta	ankle_angle_l	subtalar_angle_l	mtp_angle_l	lumbar_extension	lumbar_bending	lumbar_rotation	arm_flex_r	arm_add_r	arm_rot_r	elbow_flex_r	pro_sup_r	wrist_flex_r	wrist_dev_r	arm_flex_l	arm_add_l	arm_rot_l	elbow_flex_l	pro_sup_l	wrist_flex_l	wrist_dev_l
     52.42250000	     -3.80262957	     -4.56341343	      3.15546782	      0.79419872	      0.92317722	      0.47196911	      0.32151946	      0.11824541	    -16.64434558	     20.66250505	     20.66250505	     17.97943386	      2.59165286	     -4.03229619	     25.91601790	     -5.45081376	     -1.88913635	     26.21793376	     26.21793376	      7.79629004	    -13.77854546	      5.35230076	     -7.75891782	      5.87391575	      3.32729478	     23.71839531	    -14.89594724	    -10.90339495	     65.53573309	     45.24800201	      0.00000000	      0.00000000	     -3.61641658	     -6.71260944	      0.88822651	     26.24913888	     44.88858807	      0.00000000	      0.00000000
     52.43571429	     -3.80529389	     -4.42523978	      2.99314211	      0.79428005	      0.92417743	      0.46877354	      0.95344395	     -0.65610966	    -16.41102851	     22.70790498	     22.70790498	     17.61114006	      2.27372083	     -4.59777222	     25.26056633	     -5.17345610	     -2.15120461	     26.02874243	     26.02874243	      8.26433935	    -13.70330818	      5.25064619	     -7.82351354	      5.79285759	      3.42696912	     22.11502063	    -14.87895639	    -10.62835017	     64.20307298	     45.27849220	      0.00000000	      0.00000000	     -2.47336859	     -6.76741625	      0.64476957	     26.84509675	     44.95660335	      0.00000000	      0.00000000
     52.44892857	     -3.88084329	     -4.33711351	      2.82700931	      0.79423359	      0.92505335	      0.46558095	      1.84682988	     -1.44293285	    -16.16663559	     25.04283412	     25.04283412	     16.99837343	      1.91088260	     -5.57354815	     24.67232801	     -4.91736442	     -2.33607014	     25.78228109	     25.78228109	      8.64829923	    -13.72016682	      5.21365250	     -7.78199736	      5.78186836	      3.60519441	     20.50490031	    -14.94848054	    -10.25863291	     62.33607124	     45.32415005	      0.00000000	      0.00000000	     -1.26351852	     -6.80658274	      0.34922330	     27.53363183	     45.03382422	      0.00000000	      0.00000000
     52.46214286	     -3.88997196	     -4.27419828	      2.67207866	      0.79420260	      0.92598618	      0.46243979	      2.68399473	     -2.15397618	    -15.77393472	     27.22223387	     27.22223387	     15.06058603	      0.81980581	     -9.73622738	     23.99625930	     -4.65714297	     -2.39658589	     25.49753134	     25.49753134	      9.01384894	    -13.88243355	      5.29859471	     -7.72803857	      5.76473214	      3.06805859	     20.15457165	    -14.62045966	     -8.96418374	     57.88276411	     45.43593193	      0.00000000	      0.00000000	     -0.44262599	     -6.87395440	     -0.87301974	     28.48954013	     45.27928879	      0.00000000	      0.00000000
     52.47535714	     -3.83648285	     -4.18480453	      2.50314363	      0.79405787	      0.92681318	      0.45939196	      3.84408495	     -3.00498111	    -15.33091427	     30.22350077	     30.22350077	     14.16314976	      0.13300933	    -10.57644776	     23.29565770	     -4.43912589	     -2.67290353	     25.28887782	     25.28887782	      9.41190922	    -13.71526785	      5.13243690	     -7.88639407	      5.74674111	      3.11059714	     18.46730089	    -14.55982578	     -8.63922157	     56.56947020	     45.46141805	      0.00000000	      0.00000000	      0.81113305	     -7.06237640	     -1.08393257	     29.28159174	     45.33489908	      0.00000000	      0.00000000
     52.48857143	     -3.90339668	     -4.14228099	      2.27499572	      0.79374648	      0.92736454	      0.45652417	      5.34945125	     -3.77889603	    -14.63400000	     33.46635130	     33.46635130	     12.82199464	     -0.97144372	    -11.82364607	     22.72936491	     -4.26980567	     -2.92452613	     25.05468856	     25.05468856	      9.73756512	    -13.65947299	      4.97733311	     -7.86833344	      5.75433907	      3.40569856	     16.72882951	    -14.65174211	     -8.19080575	     54.51498961	     45.50808247	      0.00000000	      0.00000000	      2.10525505	     -7.22634294	     -1.33145840	     30.29141946	     45.39558512	      0.00000000	      0.00000000
     52.50178571	     -3.86184729	     -4.09189707	      2.05467661	      0.79335401	      0.92790821	      0.45381769	      6.90237486	     -4.51359218	    -13.79759964	     36.88790037	     36.88790037	     11.20274422	     -2.28982941	    -12.98462057	     22.08936350	     -4.11295459	     -3.18144283	     24.89000480	     24.89000480	     10.10609378	    -13.59085441	      4.77120989	     -8.01028648	      5.73157444	      3.52041017	     15.17386619	    -14.58649836	     -7.72167447	     52.43309066	     45.55519042	      0.00000000	      0.00000000	      3.41184965	     -7.48140921	     -1.52923112	     31.29096566	     45.44709446	      0.00000000	      0.00000000
     52.51500000	     -3.78041800	     -4.19849691	      1.86657072	      0.79290508	      0.92841635	      0.45135828	      8.35933632	     -4.88634037	    -12.80304540	     39.87962836	     39.87962836	      7.78767110	     -5.15554277	    -18.14225220	     21.47093107	     -4.14124951	     -3.38825632	     24.78746920	     24.78746920	     10.32087409	    -13.48749546	      4.14343191	     -8.07714046	      5.87182777	      2.53217841	     15.67033401	    -13.95968272	     -5.80186490	     46.28878194	     45.69371201	      0.00000000	      0.00000000	      3.77512636	     -8.04268511	     -2.14640019	     33.54752894	     45.55770629	      0.00000000	      0.00000000
     52.52821429	     -3.75946248	     -4.18639123	      1.57078063	      0.79229146	      0.92868751	      0.44914364	     10.26651590	     -5.41061450	    -11.68245517	     43.59042385	     43.59042385	      5.99866410	     -6.71259845	    -18.10326856	     20.91055757	     -4.08587780	     -3.74591819	     24.69377467	     24.69377467	     10.68257032	    -13.38264007	      3.91174704	     -8.20914430	      5.87137829	      2.87443984	     13.78984903	    -14.03021978	     -5.34817987	     44.44081128	     45.72884051	      0.00000000	      0.00000000	      5.19625385	     -8.36390734	     -2.38734368	     34.69585580	     45.61683544	      0.00000000	      0.00000000
     52.54142857	     -3.67418828	     -4.09087877	      1.27648581	      0.79158476	      0.92891415	      0.44704865	     12.19279580	     -5.99106283	    -10.61578297	     47.30338075	     47.30338075	      4.20170207	     -7.93110039	    -17.84587974	     20.29055243	     -3.95417838	     -4.14257040	     24.62000695	     24.62000695	     11.07799784	    -13.20731848	      3.66456782	     -8.42870921	      5.77008334	      2.85954851	     12.12550717	    -13.81682861	     -5.00040772	     42.89699560	     45.75909777	      0.00000000	      0.00000000	      6.56081901	     -8.82581025	     -2.53155838	     35.60273849	     45.65881662	      0.00000000	      0.00000000
     52.55464286	     -3.64509040	     -4.21346947	      0.97033076	      0.79072803	      0.92905806	      0.44536578	     14.22168386	     -6.06376368	     -9.35944766	     50.82224464	     50.82224464	      2.51107687	     -9.53105559	    -16.60575106	     19.81023916	     -4.10852306	     -4.56313526	     24.64637177	     24.64637177	     11.46072384	    -12.88859266	      3.24655438	     -8.57001638	      5.89652318	      3.20504160	     10.57117602	    -13.78608439	     -4.42667022	     40.13028742	     45.82523663	      0.00000000	      0.00000000	      8.00610548	     -9.20005015	     -2.59548818	     36.99617772	     45.69557162	      0.00000000	      0.00000000
